<svg width="123" height="24" viewBox="0 0 123 24" fill="none" xmlns="http://www.w3.org/2000/svg">
<path d="M7.04331 23.192C4.91531 23.192 3.21131 22.792 1.93131 21.992C0.651313 21.176 0.0113125 19.936 0.0113125 18.272C0.0113125 17.392 0.163313 16.72 0.467313 16.256C0.771313 15.792 1.21931 15.56 1.81131 15.56C2.24331 15.56 2.59531 15.672 2.86731 15.896C3.13931 16.12 3.27531 16.408 3.27531 16.76C3.27531 17.08 3.25131 17.36 3.20331 17.6C3.20331 17.664 3.18731 17.776 3.15531 17.936C3.13931 18.096 3.13131 18.264 3.13131 18.44C3.13131 19.16 3.49131 19.696 4.21131 20.048C4.94731 20.4 5.97131 20.576 7.28331 20.576C8.64331 20.576 9.70731 20.336 10.4753 19.856C11.2433 19.36 11.6273 18.672 11.6273 17.792C11.6273 17.248 11.4513 16.784 11.0993 16.4C10.7473 16 10.3073 15.672 9.77931 15.416C9.25131 15.144 8.50731 14.816 7.54731 14.432C6.31531 13.952 5.30731 13.496 4.52331 13.064C3.75531 12.632 3.09131 12.048 2.53131 11.312C1.98731 10.56 1.71531 9.632 1.71531 8.528C1.71531 7.376 2.01931 6.352 2.62731 5.456C3.25131 4.56 4.13931 3.864 5.29131 3.368C6.45931 2.872 7.82731 2.624 9.39531 2.624C10.5633 2.624 11.6353 2.8 12.6113 3.152C13.5873 3.488 14.3633 4.008 14.9393 4.712C15.5313 5.416 15.8273 6.28 15.8273 7.304C15.8273 8.312 15.6753 9.072 15.3713 9.584C15.0673 10.096 14.6193 10.352 14.0273 10.352C13.6113 10.352 13.2593 10.224 12.9713 9.968C12.6993 9.712 12.5633 9.408 12.5633 9.056C12.5633 8.752 12.5873 8.472 12.6353 8.216C12.6833 7.736 12.7073 7.432 12.7073 7.304C12.7073 6.632 12.3793 6.12 11.7233 5.768C11.0673 5.416 10.2513 5.24 9.27531 5.24C7.89931 5.24 6.84331 5.496 6.10731 6.008C5.38731 6.504 5.02731 7.208 5.02731 8.12C5.02731 8.728 5.21131 9.248 5.57931 9.68C5.96331 10.112 6.43531 10.472 6.99531 10.76C7.55531 11.048 8.33931 11.392 9.34731 11.792C10.5633 12.288 11.5393 12.736 12.2753 13.136C13.0113 13.536 13.6353 14.08 14.1473 14.768C14.6753 15.456 14.9393 16.304 14.9393 17.312C14.9393 19.2 14.2193 20.656 12.7793 21.68C11.3553 22.688 9.44331 23.192 7.04331 23.192ZM30.0736 17.648C30.2816 17.648 30.4416 17.744 30.5536 17.936C30.6816 18.128 30.7456 18.392 30.7456 18.728C30.7456 19.368 30.5936 19.864 30.2896 20.216C29.5536 21.064 28.7936 21.76 28.0096 22.304C27.2416 22.848 26.3616 23.12 25.3696 23.12C24.5536 23.12 23.9376 22.888 23.5216 22.424C23.1056 21.944 22.8976 21.256 22.8976 20.36C22.8976 19.912 23.0096 19.112 23.2336 17.96C23.4416 16.952 23.5456 16.256 23.5456 15.872C23.5456 15.616 23.4576 15.488 23.2816 15.488C23.0736 15.488 22.7776 15.76 22.3936 16.304C22.0096 16.832 21.6256 17.536 21.2416 18.416C20.8576 19.296 20.5456 20.224 20.3056 21.2C20.0016 22.48 19.2496 23.12 18.0496 23.12C17.5696 23.12 17.2496 22.952 17.0896 22.616C16.9456 22.264 16.8736 21.64 16.8736 20.744C16.8736 20.232 16.8816 19.824 16.8976 19.52L16.9216 17.6C16.9216 15.136 17.1696 12.568 17.6656 9.896C18.1776 7.224 18.9216 4.984 19.8976 3.176C20.8896 1.352 22.0736 0.439999 23.4496 0.439999C24.1856 0.439999 24.7776 0.759999 25.2256 1.4C25.6896 2.024 25.9216 2.84 25.9216 3.848C25.9216 5.464 25.4496 7.144 24.5056 8.888C23.5616 10.616 22.0256 12.64 19.8976 14.96C19.8496 15.792 19.8256 16.648 19.8256 17.528C20.3536 16.168 20.9376 15.064 21.5776 14.216C22.2336 13.352 22.8736 12.736 23.4976 12.368C24.1376 12 24.7216 11.816 25.2496 11.816C26.2896 11.816 26.8096 12.336 26.8096 13.376C26.8096 14 26.6336 15.128 26.2816 16.76C25.9776 18.152 25.8256 19.072 25.8256 19.52C25.8256 20.16 26.0576 20.48 26.5216 20.48C26.8416 20.48 27.2176 20.288 27.6496 19.904C28.0976 19.504 28.6896 18.864 29.4256 17.984C29.6176 17.76 29.8336 17.648 30.0736 17.648ZM22.9456 2.816C22.6576 2.816 22.3376 3.232 21.9856 4.064C21.6336 4.88 21.2896 5.992 20.9536 7.4C20.6336 8.792 20.3696 10.312 20.1616 11.96C21.1536 10.792 21.9696 9.52 22.6096 8.144C23.2656 6.768 23.5936 5.52 23.5936 4.4C23.5936 3.888 23.5376 3.496 23.4256 3.224C23.3136 2.952 23.1536 2.816 22.9456 2.816ZM41.0404 15.632C41.2484 15.632 41.4084 15.736 41.5204 15.944C41.6324 16.152 41.6884 16.416 41.6884 16.736C41.6884 17.504 41.4564 17.96 40.9924 18.104C40.0324 18.44 38.9764 18.632 37.8244 18.68C37.5204 20.024 36.9204 21.104 36.0244 21.92C35.1284 22.72 34.1124 23.12 32.9764 23.12C32.0164 23.12 31.1924 22.888 30.5044 22.424C29.8324 21.96 29.3204 21.344 28.9684 20.576C28.6164 19.808 28.4404 18.976 28.4404 18.08C28.4404 16.864 28.6724 15.784 29.1364 14.84C29.6004 13.88 30.2404 13.136 31.0564 12.608C31.8724 12.064 32.7764 11.792 33.7684 11.792C34.9844 11.792 35.9604 12.216 36.6964 13.064C37.4484 13.896 37.8884 14.928 38.0164 16.16C38.7684 16.112 39.6644 15.952 40.7044 15.68C40.8324 15.648 40.9444 15.632 41.0404 15.632ZM33.1684 20.576C33.6804 20.576 34.1204 20.368 34.4884 19.952C34.8724 19.536 35.1284 18.936 35.2564 18.152C34.7604 17.816 34.3764 17.376 34.1044 16.832C33.8484 16.288 33.7204 15.712 33.7204 15.104C33.7204 14.848 33.7444 14.592 33.7924 14.336H33.6724C33.0324 14.336 32.4964 14.648 32.0644 15.272C31.6484 15.88 31.4404 16.744 31.4404 17.864C31.4404 18.744 31.6084 19.416 31.9444 19.88C32.2964 20.344 32.7044 20.576 33.1684 20.576ZM49.3246 15.104C49.6766 15.104 49.9726 15.232 50.2126 15.488C50.4686 15.728 50.5966 16.032 50.5966 16.4C50.5966 16.608 50.5486 16.832 50.4526 17.072C50.1966 17.664 49.8366 18.16 49.3726 18.56C48.9086 18.96 48.3966 19.16 47.8366 19.16C47.3886 19.16 47.0046 19 46.6846 18.68C46.3806 18.36 46.2286 17.928 46.2286 17.384C46.2286 17.08 46.2446 16.752 46.2766 16.4C46.3086 16.144 46.3246 15.968 46.3246 15.872C46.3246 15.744 46.2926 15.648 46.2286 15.584C46.1806 15.52 46.1166 15.488 46.0366 15.488C45.8126 15.488 45.5086 15.76 45.1246 16.304C44.7406 16.832 44.3566 17.536 43.9726 18.416C43.5886 19.296 43.2766 20.224 43.0366 21.2C42.8606 21.968 42.6606 22.48 42.4366 22.736C42.2126 22.992 41.8446 23.12 41.3326 23.12C40.7246 23.12 40.2926 22.8 40.0366 22.16C39.7966 21.52 39.6766 20.496 39.6766 19.088C39.6766 17.008 39.9726 15.032 40.5646 13.16C40.7086 12.696 40.9406 12.36 41.2606 12.152C41.5966 11.928 42.0606 11.816 42.6526 11.816C42.9726 11.816 43.1966 11.856 43.3246 11.936C43.4526 12.016 43.5166 12.168 43.5166 12.392C43.5166 12.648 43.3966 13.224 43.1566 14.12C42.9966 14.76 42.8686 15.32 42.7726 15.8C42.6766 16.28 42.5966 16.872 42.5326 17.576C43.0606 16.2 43.6526 15.08 44.3086 14.216C44.9646 13.352 45.6046 12.736 46.2286 12.368C46.8526 12 47.4206 11.816 47.9326 11.816C48.3966 11.816 48.7486 11.952 48.9886 12.224C49.2446 12.48 49.3726 12.864 49.3726 13.376C49.3726 13.68 49.2846 14.256 49.1086 15.104H49.3246ZM62.2154 17.648C62.4234 17.648 62.5834 17.744 62.6954 17.936C62.8234 18.128 62.8874 18.392 62.8874 18.728C62.8874 19.368 62.7354 19.864 62.4314 20.216C61.7434 21.064 60.9914 21.76 60.1754 22.304C59.3594 22.848 58.4234 23.12 57.3674 23.12C54.1034 23.12 52.4714 20.824 52.4714 16.232C52.4714 15.528 52.4954 14.816 52.5434 14.096H51.6074C51.1274 14.096 50.7994 14.008 50.6234 13.832C50.4634 13.656 50.3834 13.376 50.3834 12.992C50.3834 12.096 50.7434 11.648 51.4634 11.648H52.8314C53.1034 9.888 53.5194 8.28 54.0794 6.824C54.6394 5.368 55.3114 4.208 56.0954 3.344C56.8954 2.48 57.7514 2.048 58.6634 2.048C59.3354 2.048 59.8634 2.344 60.2474 2.936C60.6314 3.528 60.8234 4.272 60.8234 5.168C60.8234 7.648 59.7834 9.808 57.7034 11.648H60.3914C60.6474 11.648 60.8314 11.704 60.9434 11.816C61.0554 11.928 61.1114 12.136 61.1114 12.44C61.1114 13.544 60.2074 14.096 58.3994 14.096H55.4714C55.4394 14.896 55.4234 15.52 55.4234 15.968C55.4234 17.632 55.6154 18.8 55.9994 19.472C56.3994 20.144 57.0234 20.48 57.8714 20.48C58.5594 20.48 59.1674 20.272 59.6954 19.856C60.2234 19.44 60.8474 18.816 61.5674 17.984C61.7594 17.76 61.9754 17.648 62.2154 17.648ZM58.0154 4.352C57.7754 4.352 57.5034 4.656 57.1994 5.264C56.9114 5.856 56.6314 6.688 56.3594 7.76C56.1034 8.816 55.8874 9.992 55.7114 11.288C56.6554 10.472 57.3594 9.56 57.8234 8.552C58.3034 7.528 58.5434 6.6 58.5434 5.768C58.5434 4.824 58.3674 4.352 58.0154 4.352ZM83.3253 17.648C83.5333 17.648 83.6933 17.744 83.8053 17.936C83.9333 18.128 83.9973 18.392 83.9973 18.728C83.9973 19.352 83.8453 19.848 83.5413 20.216C82.7733 21.144 81.9973 21.864 81.2133 22.376C80.4293 22.872 79.5013 23.12 78.4293 23.12C77.3893 23.12 76.5013 22.84 75.7653 22.28C75.0453 21.72 74.3573 20.76 73.7013 19.4C73.1733 18.312 72.7573 17.512 72.4532 17C72.1493 16.472 71.8453 16.096 71.5413 15.872C71.2533 15.648 70.8933 15.512 70.4613 15.464C70.3973 15.8 70.2133 16.856 69.9093 18.632C69.7813 19.432 69.7013 19.92 69.6693 20.096C69.5093 21.072 69.1893 21.824 68.7093 22.352C68.2293 22.864 67.5013 23.12 66.5253 23.12C65.4533 23.12 64.5013 22.808 63.6693 22.184C62.8533 21.544 62.2213 20.664 61.7733 19.544C61.3253 18.408 61.1013 17.12 61.1013 15.68C61.1013 12.992 61.5653 10.672 62.4933 8.72C63.4373 6.768 64.7493 5.28 66.4293 4.256C68.1253 3.216 70.0773 2.696 72.2853 2.696C73.8213 2.696 75.1093 2.928 76.1493 3.392C77.1893 3.856 77.9573 4.496 78.4533 5.312C78.9653 6.128 79.2213 7.048 79.2213 8.072C79.2213 8.968 79.0053 9.848 78.5733 10.712C78.1573 11.56 77.5253 12.312 76.6773 12.968C75.8293 13.624 74.7973 14.112 73.5813 14.432C74.3493 14.64 74.9413 14.976 75.3573 15.44C75.7733 15.904 76.1893 16.584 76.6053 17.48C77.0533 18.44 77.4933 19.144 77.9253 19.592C78.3733 20.04 78.8853 20.264 79.4613 20.264C79.9733 20.264 80.4613 20.096 80.9253 19.76C81.3893 19.408 81.9733 18.816 82.6773 17.984C82.8693 17.76 83.0853 17.648 83.3253 17.648ZM67.1493 15.44C66.6053 15.44 66.2293 15.312 66.0213 15.056C65.8293 14.8 65.7333 14.512 65.7333 14.192C65.7333 13.808 65.8533 13.504 66.0933 13.28C66.3493 13.056 66.6373 12.944 66.9573 12.944H67.5573C67.8133 11.376 68.0533 10.024 68.2773 8.888C68.4853 7.848 69.1573 7.328 70.2933 7.328C71.2053 7.328 71.6613 7.736 71.6613 8.552C71.6613 8.728 71.6533 8.864 71.6373 8.96L70.9173 12.944C71.7813 12.896 72.5653 12.688 73.2693 12.32C73.9893 11.952 74.5573 11.44 74.9733 10.784C75.4053 10.128 75.6213 9.384 75.6213 8.552C75.6213 7.544 75.2773 6.752 74.5893 6.176C73.9013 5.6 72.8933 5.312 71.5653 5.312C69.9973 5.312 68.6213 5.704 67.4373 6.488C66.2693 7.256 65.3573 8.408 64.7013 9.944C64.0453 11.464 63.7173 13.32 63.7173 15.512C63.7173 16.536 63.8213 17.416 64.0293 18.152C64.2373 18.888 64.4933 19.44 64.7973 19.808C65.1013 20.176 65.3893 20.36 65.6613 20.36C65.8693 20.36 66.0373 20.256 66.1653 20.048C66.3093 19.84 66.4213 19.504 66.5013 19.04L67.1493 15.44ZM92.2857 17.648C92.4937 17.648 92.6537 17.744 92.7657 17.936C92.8937 18.128 92.9577 18.392 92.9577 18.728C92.9577 19.368 92.8057 19.864 92.5017 20.216C91.9097 20.936 91.0697 21.6 89.9817 22.208C88.9097 22.816 87.7577 23.12 86.5257 23.12C84.8457 23.12 83.5417 22.664 82.6137 21.752C81.6857 20.84 81.2217 19.592 81.2217 18.008C81.2217 16.904 81.4537 15.88 81.9177 14.936C82.3817 13.976 83.0217 13.216 83.8377 12.656C84.6697 12.096 85.6057 11.816 86.6457 11.816C87.5737 11.816 88.3177 12.096 88.8777 12.656C89.4377 13.2 89.7177 13.944 89.7177 14.888C89.7177 15.992 89.3177 16.944 88.5177 17.744C87.7337 18.528 86.3977 19.152 84.5097 19.616C84.9097 20.352 85.6697 20.72 86.7897 20.72C87.5097 20.72 88.3257 20.472 89.2377 19.976C90.1657 19.464 90.9657 18.8 91.6377 17.984C91.8297 17.76 92.0457 17.648 92.2857 17.648ZM86.2377 14.168C85.6457 14.168 85.1417 14.512 84.7257 15.2C84.3257 15.888 84.1257 16.72 84.1257 17.696V17.744C85.0697 17.52 85.8137 17.184 86.3577 16.736C86.9017 16.288 87.1737 15.768 87.1737 15.176C87.1737 14.872 87.0857 14.632 86.9097 14.456C86.7497 14.264 86.5257 14.168 86.2377 14.168ZM93.8384 23.12C92.8464 23.12 92.0544 22.76 91.4624 22.04C90.8704 21.32 90.5744 20.376 90.5744 19.208C90.5744 17.928 90.8704 16.72 91.4624 15.584C92.0544 14.432 92.8384 13.512 93.8144 12.824C94.8064 12.12 95.8544 11.768 96.9584 11.768C97.3104 11.768 97.5424 11.84 97.6544 11.984C97.7824 12.112 97.8864 12.352 97.9664 12.704C98.3024 12.64 98.6544 12.608 99.0224 12.608C99.8064 12.608 100.198 12.888 100.198 13.448C100.198 13.784 100.078 14.584 99.8384 15.848C99.4704 17.688 99.2864 18.968 99.2864 19.688C99.2864 19.928 99.3424 20.12 99.4544 20.264C99.5824 20.408 99.7424 20.48 99.9344 20.48C100.238 20.48 100.606 20.288 101.038 19.904C101.47 19.504 102.054 18.864 102.79 17.984C102.982 17.76 103.198 17.648 103.438 17.648C103.646 17.648 103.806 17.744 103.918 17.936C104.046 18.128 104.11 18.392 104.11 18.728C104.11 19.368 103.958 19.864 103.654 20.216C102.998 21.032 102.302 21.72 101.566 22.28C100.83 22.84 100.118 23.12 99.4304 23.12C98.9024 23.12 98.4144 22.944 97.9664 22.592C97.5344 22.224 97.2064 21.728 96.9824 21.104C96.1504 22.448 95.1024 23.12 93.8384 23.12ZM94.7024 20.696C95.0544 20.696 95.3904 20.488 95.7104 20.072C96.0304 19.656 96.2624 19.104 96.4064 18.416L97.2944 14C96.6224 14.016 95.9984 14.272 95.4224 14.768C94.8624 15.248 94.4144 15.888 94.0784 16.688C93.7424 17.488 93.5744 18.336 93.5744 19.232C93.5744 19.728 93.6704 20.096 93.8624 20.336C94.0704 20.576 94.3504 20.696 94.7024 20.696ZM115.792 17.648C116 17.648 116.16 17.744 116.272 17.936C116.4 18.128 116.464 18.392 116.464 18.728C116.464 19.368 116.312 19.864 116.008 20.216C115.352 21.016 114.632 21.704 113.848 22.28C113.064 22.84 112.288 23.12 111.52 23.12C110.304 23.12 109.376 22.408 108.736 20.984C108.064 21.832 107.472 22.4 106.96 22.688C106.464 22.976 105.88 23.12 105.208 23.12C104.232 23.12 103.424 22.76 102.784 22.04C102.16 21.304 101.848 20.352 101.848 19.184C101.848 17.904 102.12 16.72 102.664 15.632C103.208 14.528 103.952 13.632 104.896 12.944C105.856 12.24 106.928 11.824 108.112 11.696C108.416 8.592 108.992 5.944 109.84 3.752C110.704 1.544 111.832 0.439999 113.224 0.439999C113.912 0.439999 114.48 0.751999 114.928 1.376C115.392 2 115.624 2.944 115.624 4.208C115.624 6 115.184 8.096 114.304 10.496C113.424 12.896 112.248 15.36 110.776 17.888C110.84 18.816 110.976 19.48 111.184 19.88C111.408 20.28 111.688 20.48 112.024 20.48C112.456 20.48 112.896 20.288 113.344 19.904C113.792 19.52 114.392 18.88 115.144 17.984C115.336 17.76 115.552 17.648 115.792 17.648ZM112.96 2.792C112.656 2.792 112.352 3.336 112.048 4.424C111.744 5.496 111.48 6.904 111.256 8.648C111.048 10.392 110.896 12.216 110.8 14.12C112.592 10.216 113.488 7.08 113.488 4.712C113.488 4.104 113.432 3.632 113.32 3.296C113.224 2.96 113.104 2.792 112.96 2.792ZM106.048 20.696C106.352 20.696 106.656 20.576 106.96 20.336C107.264 20.08 107.648 19.616 108.112 18.944C107.952 18.08 107.872 17.112 107.872 16.04C107.872 15.656 107.888 15.032 107.92 14.168C107.04 14.44 106.304 15.032 105.712 15.944C105.136 16.84 104.848 17.84 104.848 18.944C104.848 20.112 105.248 20.696 106.048 20.696ZM118.975 23.648C118.143 23.648 117.503 23.456 117.055 23.072C116.623 22.688 116.407 22.256 116.407 21.776C116.407 21.36 116.559 21 116.863 20.696C117.167 20.392 117.615 20.24 118.207 20.24C118.415 20.24 118.655 20.264 118.927 20.312C119.215 20.344 119.431 20.368 119.575 20.384C119.559 19.968 119.463 19.576 119.287 19.208C119.127 18.84 118.919 18.488 118.663 18.152C118.407 17.8 118.167 17.496 117.943 17.24C117.447 18.184 116.951 18.968 116.455 19.592C115.975 20.216 115.447 20.808 114.871 21.368C114.583 21.656 114.279 21.8 113.959 21.8C113.703 21.8 113.495 21.712 113.335 21.536C113.175 21.344 113.095 21.112 113.095 20.84C113.095 20.52 113.207 20.224 113.431 19.952L113.743 19.568C114.623 18.48 115.287 17.584 115.735 16.88C116.023 16.416 116.311 15.864 116.599 15.224C116.903 14.584 117.295 13.712 117.775 12.608C118.079 11.904 118.711 11.552 119.671 11.552C120.119 11.552 120.431 11.592 120.607 11.672C120.783 11.752 120.871 11.88 120.871 12.056C120.871 12.152 120.839 12.304 120.775 12.512C120.711 12.72 120.623 12.928 120.511 13.136C120.223 13.712 120.079 14.2 120.079 14.6C120.079 14.84 120.159 15.104 120.319 15.392C120.495 15.68 120.759 16.04 121.111 16.472C121.623 17.144 122.007 17.72 122.263 18.2C122.535 18.664 122.671 19.176 122.671 19.736C122.671 20.408 122.511 21.048 122.191 21.656C121.887 22.248 121.455 22.728 120.895 23.096C120.335 23.464 119.695 23.648 118.975 23.648Z" fill="#0D332D"/>
</svg>
