<svg width="125" height="125" viewBox="0 0 125 125" fill="none" xmlns="http://www.w3.org/2000/svg">
<path fill-rule="evenodd" clip-rule="evenodd" d="M62.5 125C97.0178 125 125 97.0178 125 62.5C125 27.9822 97.0178 0 62.5 0C27.9822 0 0 27.9822 0 62.5C0 97.0178 27.9822 125 62.5 125ZM2.93131 68.992C4.21131 69.792 5.91531 70.192 8.04331 70.192C10.4433 70.192 12.3553 69.688 13.7793 68.68C15.2193 67.656 15.9393 66.2 15.9393 64.312C15.9393 63.304 15.6753 62.456 15.1473 61.768C14.6353 61.08 14.0113 60.536 13.2753 60.136C12.5393 59.736 11.5633 59.288 10.3473 58.792C9.33931 58.392 8.55531 58.048 7.99531 57.76C7.43531 57.472 6.96331 57.112 6.57931 56.68C6.21131 56.248 6.02731 55.728 6.02731 55.12C6.02731 54.208 6.38731 53.504 7.10731 53.008C7.84331 52.496 8.89931 52.24 10.2753 52.24C11.2513 52.24 12.0673 52.416 12.7233 52.768C13.3793 53.12 13.7073 53.632 13.7073 54.304C13.7073 54.432 13.6833 54.736 13.6353 55.216C13.5873 55.472 13.5633 55.752 13.5633 56.056C13.5633 56.408 13.6993 56.712 13.9713 56.968C14.2593 57.224 14.6113 57.352 15.0273 57.352C15.6193 57.352 16.0673 57.096 16.3713 56.584C16.6753 56.072 16.8273 55.312 16.8273 54.304C16.8273 53.28 16.5313 52.416 15.9393 51.712C15.3633 51.008 14.5873 50.488 13.6113 50.152C12.6353 49.8 11.5633 49.624 10.3953 49.624C8.82731 49.624 7.45931 49.872 6.29131 50.368C5.13931 50.864 4.25131 51.56 3.62731 52.456C3.01931 53.352 2.71531 54.376 2.71531 55.528C2.71531 56.632 2.98731 57.56 3.53131 58.312C4.09131 59.048 4.75531 59.632 5.52331 60.064C6.30731 60.496 7.31531 60.952 8.54731 61.432C9.50731 61.816 10.2513 62.144 10.7793 62.416C11.3073 62.672 11.7473 63 12.0993 63.4C12.4513 63.784 12.6273 64.248 12.6273 64.792C12.6273 65.672 12.2433 66.36 11.4753 66.856C10.7073 67.336 9.64331 67.576 8.28331 67.576C6.97131 67.576 5.94731 67.4 5.21131 67.048C4.49131 66.696 4.13131 66.16 4.13131 65.44C4.13131 65.264 4.13931 65.096 4.15531 64.936C4.18731 64.776 4.20331 64.664 4.20331 64.6C4.25131 64.36 4.27531 64.08 4.27531 63.76C4.27531 63.408 4.13931 63.12 3.86731 62.896C3.59531 62.672 3.24331 62.56 2.81131 62.56C2.21931 62.56 1.77131 62.792 1.46731 63.256C1.16331 63.72 1.01131 64.392 1.01131 65.272C1.01131 66.936 1.65131 68.176 2.93131 68.992ZM29.5108 66.0357C29.4639 65.7256 29.4404 65.4071 29.4404 65.08C29.4404 63.864 29.6724 62.784 30.1364 61.84C30.6004 60.88 31.2404 60.136 32.0564 59.608C32.8724 59.064 33.7764 58.792 34.7684 58.792C35.9844 58.792 36.9604 59.216 37.6964 60.064C38.4484 60.896 38.8884 61.928 39.0164 63.16C39.5738 63.1244 40.2103 63.0273 40.926 62.8687C41.0734 61.9428 41.2863 61.0399 41.5646 60.16C41.7086 59.696 41.9406 59.36 42.2606 59.152C42.5966 58.928 43.0606 58.816 43.6526 58.816C43.9726 58.816 44.1966 58.856 44.3246 58.936C44.4526 59.016 44.5166 59.168 44.5166 59.392C44.5166 59.648 44.3966 60.224 44.1566 61.12C43.9966 61.76 43.8686 62.32 43.7726 62.8C43.6766 63.28 43.5966 63.872 43.5326 64.576C44.0606 63.2 44.6526 62.08 45.3086 61.216C45.9646 60.352 46.6046 59.736 47.2286 59.368C47.8526 59 48.4206 58.816 48.9326 58.816C49.3966 58.816 49.7486 58.952 49.9886 59.224C50.2446 59.48 50.3726 59.864 50.3726 60.376C50.3726 60.68 50.2846 61.256 50.1086 62.104H50.3246C50.6766 62.104 50.9726 62.232 51.2126 62.488C51.4686 62.728 51.5966 63.032 51.5966 63.4C51.5966 63.608 51.5486 63.832 51.4526 64.072C51.1966 64.664 50.8366 65.16 50.3726 65.56C49.9086 65.96 49.3966 66.16 48.8366 66.16C48.3886 66.16 48.0046 66 47.6846 65.68C47.3806 65.36 47.2286 64.928 47.2286 64.384C47.2286 64.08 47.2446 63.752 47.2766 63.4C47.3086 63.144 47.3246 62.968 47.3246 62.872C47.3246 62.744 47.2926 62.648 47.2286 62.584C47.1806 62.52 47.1166 62.488 47.0366 62.488C46.8126 62.488 46.5086 62.76 46.1246 63.304C45.7406 63.832 45.3566 64.536 44.9726 65.416C44.5886 66.296 44.2766 67.224 44.0366 68.2C43.8606 68.968 43.6606 69.48 43.4366 69.736C43.2126 69.992 42.8446 70.12 42.3326 70.12C41.7246 70.12 41.2926 69.8 41.0366 69.16C40.7966 68.52 40.6766 67.496 40.6766 66.088C40.6766 65.8778 40.6796 65.6687 40.6856 65.4606C40.0959 65.5798 39.4755 65.6529 38.8244 65.68C38.5204 67.024 37.9204 68.104 37.0244 68.92C36.1284 69.72 35.1124 70.12 33.9764 70.12C33.0164 70.12 32.1924 69.888 31.5044 69.424C31.0336 69.0989 30.6413 68.6992 30.3276 68.2249C29.8961 68.634 29.4567 68.9937 29.0096 69.304C28.2416 69.848 27.3616 70.12 26.3696 70.12C25.5536 70.12 24.9376 69.888 24.5216 69.424C24.1056 68.944 23.8976 68.256 23.8976 67.36C23.8976 66.912 24.0096 66.112 24.2336 64.96C24.4416 63.952 24.5456 63.256 24.5456 62.872C24.5456 62.616 24.4576 62.488 24.2816 62.488C24.0736 62.488 23.7776 62.76 23.3936 63.304C23.0096 63.832 22.6256 64.536 22.2416 65.416C21.8576 66.296 21.5456 67.224 21.3056 68.2C21.0016 69.48 20.2496 70.12 19.0496 70.12C18.5696 70.12 18.2496 69.952 18.0896 69.616C17.9456 69.264 17.8736 68.64 17.8736 67.744C17.8736 67.232 17.8816 66.824 17.8976 66.52L17.9216 64.6C17.9216 62.136 18.1696 59.568 18.6656 56.896C19.1776 54.224 19.9216 51.984 20.8976 50.176C21.8896 48.352 23.0736 47.44 24.4496 47.44C25.1856 47.44 25.7776 47.76 26.2256 48.4C26.6896 49.024 26.9216 49.84 26.9216 50.848C26.9216 52.464 26.4496 54.144 25.5056 55.888C24.5616 57.616 23.0256 59.64 20.8976 61.96C20.8496 62.792 20.8256 63.648 20.8256 64.528C21.3536 63.168 21.9376 62.064 22.5776 61.216C23.2336 60.352 23.8736 59.736 24.4976 59.368C25.1376 59 25.7216 58.816 26.2496 58.816C27.2896 58.816 27.8096 59.336 27.8096 60.376C27.8096 61 27.6336 62.128 27.2816 63.76C26.9776 65.152 26.8256 66.072 26.8256 66.52C26.8256 67.16 27.0576 67.48 27.5216 67.48C27.8416 67.48 28.2176 67.288 28.6496 66.904C28.8938 66.6859 29.1809 66.3965 29.5108 66.0357ZM22.9856 51.064C23.3376 50.232 23.6576 49.816 23.9456 49.816C24.1536 49.816 24.3136 49.952 24.4256 50.224C24.5376 50.496 24.5936 50.888 24.5936 51.4C24.5936 52.52 24.2656 53.768 23.6096 55.144C22.9696 56.52 22.1536 57.792 21.1616 58.96C21.3696 57.312 21.6336 55.792 21.9536 54.4C22.2896 52.992 22.6336 51.88 22.9856 51.064ZM35.4884 66.952C35.1204 67.368 34.6804 67.576 34.1684 67.576C33.7044 67.576 33.2964 67.344 32.9444 66.88C32.6084 66.416 32.4404 65.744 32.4404 64.864C32.4404 63.744 32.6484 62.88 33.0644 62.272C33.4964 61.648 34.0324 61.336 34.6724 61.336H34.7924C34.7444 61.592 34.7204 61.848 34.7204 62.104C34.7204 62.712 34.8484 63.288 35.1044 63.832C35.3764 64.376 35.7604 64.816 36.2564 65.152C36.1284 65.936 35.8724 66.536 35.4884 66.952ZM62.3664 65.2137C62.1896 64.4291 62.1012 63.5845 62.1012 62.68C62.1012 59.992 62.5653 57.672 63.4933 55.72C64.4372 53.768 65.7493 52.28 67.4293 51.256C69.1253 50.216 71.0772 49.696 73.2852 49.696C74.8213 49.696 76.1093 49.928 77.1493 50.392C78.1893 50.856 78.9573 51.496 79.4533 52.312C79.9652 53.128 80.2213 54.048 80.2213 55.072C80.2213 55.968 80.0052 56.848 79.5732 57.712C79.1572 58.56 78.5253 59.312 77.6773 59.968C76.8293 60.624 75.7972 61.112 74.5813 61.432C75.3493 61.64 75.9413 61.976 76.3573 62.44C76.7733 62.904 77.1892 63.584 77.6052 64.48C78.0533 65.44 78.4932 66.144 78.9252 66.592C79.3733 67.04 79.8853 67.264 80.4613 67.264C80.9733 67.264 81.4613 67.096 81.9252 66.76C82.0594 66.6583 82.2035 66.5365 82.3576 66.3946C82.267 65.9652 82.2217 65.503 82.2217 65.008C82.2217 63.904 82.4537 62.88 82.9177 61.936C83.3817 60.976 84.0217 60.216 84.8377 59.656C85.6697 59.096 86.6057 58.816 87.6457 58.816C88.5737 58.816 89.3177 59.096 89.8777 59.656C90.4377 60.2 90.7177 60.944 90.7177 61.888C90.7177 62.992 90.3177 63.944 89.5177 64.744C88.7337 65.528 87.3977 66.152 85.5097 66.616C85.9097 67.352 86.6697 67.72 87.7897 67.72C88.5097 67.72 89.3257 67.472 90.2377 66.976C90.718 66.711 91.164 66.4053 91.5757 66.0589C91.5979 64.8341 91.8934 63.6758 92.4624 62.584C93.0544 61.432 93.8384 60.512 94.8144 59.824C95.8064 59.12 96.8544 58.768 97.9584 58.768C98.3104 58.768 98.5424 58.84 98.6544 58.984C98.7824 59.112 98.8864 59.352 98.9664 59.704C99.3024 59.64 99.6544 59.608 100.022 59.608C100.806 59.608 101.198 59.888 101.198 60.448C101.198 60.784 101.078 61.584 100.838 62.848C100.47 64.688 100.286 65.968 100.286 66.688C100.286 66.928 100.342 67.12 100.454 67.264C100.582 67.408 100.742 67.48 100.934 67.48C101.238 67.48 101.606 67.288 102.038 66.904C102.266 66.6931 102.536 66.4154 102.849 66.0711C102.864 64.8343 103.136 63.6879 103.664 62.632C104.208 61.528 104.952 60.632 105.896 59.944C106.856 59.24 107.928 58.824 109.112 58.696C109.416 55.592 109.992 52.944 110.84 50.752C111.704 48.544 112.832 47.44 114.224 47.44C114.912 47.44 115.48 47.752 115.928 48.376C116.392 49 116.624 49.944 116.624 51.208C116.624 53 116.184 55.096 115.304 57.496C114.424 59.896 113.248 62.36 111.776 64.888C111.84 65.816 111.976 66.48 112.184 66.88C112.408 67.28 112.688 67.48 113.024 67.48C113.456 67.48 113.896 67.288 114.344 66.904C114.505 66.7654 114.687 66.5936 114.888 66.3884C115.697 65.381 116.312 64.5449 116.735 63.88C117.023 63.416 117.311 62.864 117.599 62.224C117.903 61.584 118.295 60.712 118.775 59.608C119.079 58.904 119.711 58.552 120.671 58.552C121.119 58.552 121.431 58.592 121.607 58.672C121.783 58.752 121.871 58.88 121.871 59.056C121.871 59.152 121.839 59.304 121.775 59.512C121.711 59.72 121.623 59.928 121.511 60.136C121.223 60.712 121.079 61.2 121.079 61.6C121.079 61.84 121.159 62.104 121.319 62.392C121.495 62.68 121.759 63.04 122.111 63.472C122.623 64.144 123.007 64.72 123.263 65.2C123.535 65.664 123.671 66.176 123.671 66.736C123.671 67.408 123.511 68.048 123.191 68.656C122.887 69.248 122.455 69.728 121.895 70.096C121.335 70.464 120.695 70.648 119.975 70.648C119.143 70.648 118.503 70.456 118.055 70.072C117.623 69.688 117.407 69.256 117.407 68.776C117.407 68.36 117.559 68 117.863 67.696C118.167 67.392 118.615 67.24 119.207 67.24C119.415 67.24 119.655 67.264 119.927 67.312L120.575 67.384C120.559 66.968 120.463 66.576 120.287 66.208C120.127 65.84 119.919 65.488 119.663 65.152C119.407 64.8 119.167 64.496 118.943 64.24C118.447 65.184 117.951 65.968 117.455 66.592C117.383 66.6865 117.309 66.7802 117.234 66.8733C117.171 66.9996 117.096 67.1139 117.008 67.216C116.352 68.016 115.632 68.704 114.848 69.28C114.064 69.84 113.288 70.12 112.52 70.12C111.304 70.12 110.376 69.408 109.736 67.984C109.064 68.832 108.472 69.4 107.96 69.688C107.464 69.976 106.88 70.12 106.208 70.12C105.232 70.12 104.424 69.76 103.784 69.04C103.652 68.8849 103.535 68.7203 103.431 68.546C103.149 68.8112 102.861 69.0558 102.566 69.28C101.83 69.84 101.118 70.12 100.43 70.12C99.9024 70.12 99.4144 69.944 98.9664 69.592C98.5344 69.224 98.2064 68.728 97.9824 68.104C97.1504 69.448 96.1024 70.12 94.8384 70.12C93.8464 70.12 93.0544 69.76 92.4624 69.04C92.325 68.8729 92.2036 68.6938 92.0981 68.5025C91.7606 68.7455 91.3885 68.9807 90.9817 69.208C89.9097 69.816 88.7577 70.12 87.5257 70.12C85.8457 70.12 84.5417 69.664 83.6137 68.752C83.5236 68.6634 83.4378 68.5717 83.3564 68.4768C82.9773 68.8262 82.5962 69.1259 82.2132 69.376C81.4293 69.872 80.5013 70.12 79.4293 70.12C78.3893 70.12 77.5013 69.84 76.7653 69.28C76.0452 68.72 75.3573 67.76 74.7012 66.4C74.1732 65.312 73.7572 64.512 73.4532 64C73.1492 63.472 72.8453 63.096 72.5413 62.872C72.2533 62.648 71.8932 62.512 71.4613 62.464C71.3972 62.8 71.2132 63.856 70.9092 65.632C70.7812 66.432 70.7012 66.92 70.6693 67.096C70.5092 68.072 70.1892 68.824 69.7093 69.352C69.2292 69.864 68.5013 70.12 67.5253 70.12C66.4532 70.12 65.5013 69.808 64.6693 69.184C64.0939 68.7327 63.61 68.1621 63.2176 67.4722C62.5884 68.2052 61.9077 68.8158 61.1754 69.304C60.3594 69.848 59.4234 70.12 58.3674 70.12C55.1034 70.12 53.4714 67.824 53.4714 63.232C53.4714 62.528 53.4954 61.816 53.5434 61.096H52.6074C52.1274 61.096 51.7994 61.008 51.6234 60.832C51.4634 60.656 51.3834 60.376 51.3834 59.992C51.3834 59.096 51.7434 58.648 52.4634 58.648H53.8314C54.1034 56.888 54.5194 55.28 55.0794 53.824C55.6394 52.368 56.3114 51.208 57.0954 50.344C57.8954 49.48 58.7514 49.048 59.6634 49.048C60.3354 49.048 60.8634 49.344 61.2474 49.936C61.6314 50.528 61.8234 51.272 61.8234 52.168C61.8234 54.648 60.7834 56.808 58.7034 58.648H61.3914C61.6474 58.648 61.8314 58.704 61.9434 58.816C62.0554 58.928 62.1114 59.136 62.1114 59.44C62.1114 60.544 61.2074 61.096 59.3994 61.096H56.4714C56.4394 61.896 56.4234 62.52 56.4234 62.968C56.4234 64.632 56.6154 65.8 56.9994 66.472C57.3994 67.144 58.0234 67.48 58.8714 67.48C59.5594 67.48 60.1674 67.272 60.6954 66.856C61.1736 66.4792 61.7306 65.9317 62.3664 65.2137ZM58.1994 52.264C58.5034 51.656 58.7754 51.352 59.0154 51.352C59.3674 51.352 59.5434 51.824 59.5434 52.768C59.5434 53.6 59.3034 54.528 58.8234 55.552C58.3594 56.56 57.6554 57.472 56.7114 58.288C56.8874 56.992 57.1034 55.816 57.3594 54.76C57.6314 53.688 57.9114 52.856 58.1994 52.264ZM67.0212 62.056C67.2292 62.312 67.6052 62.44 68.1493 62.44L67.5013 66.04C67.4212 66.504 67.3092 66.84 67.1653 67.048C67.0372 67.256 66.8692 67.36 66.6612 67.36C66.3893 67.36 66.1012 67.176 65.7972 66.808C65.4932 66.44 65.2373 65.888 65.0293 65.152C64.8213 64.416 64.7172 63.536 64.7172 62.512C64.7172 60.32 65.0452 58.464 65.7012 56.944C66.3573 55.408 67.2692 54.256 68.4372 53.488C69.6212 52.704 70.9973 52.312 72.5653 52.312C73.8932 52.312 74.9013 52.6 75.5892 53.176C76.2773 53.752 76.6213 54.544 76.6213 55.552C76.6213 56.384 76.4053 57.128 75.9733 57.784C75.5573 58.44 74.9893 58.952 74.2692 59.32C73.5652 59.688 72.7812 59.896 71.9173 59.944L72.6373 55.96C72.6533 55.864 72.6612 55.728 72.6612 55.552C72.6612 54.736 72.2053 54.328 71.2933 54.328C70.1572 54.328 69.4853 54.848 69.2773 55.888C69.0533 57.024 68.8132 58.376 68.5573 59.944H67.9573C67.6373 59.944 67.3493 60.056 67.0932 60.28C66.8532 60.504 66.7333 60.808 66.7333 61.192C66.7333 61.512 66.8293 61.8 67.0212 62.056ZM85.7257 62.2C86.1417 61.512 86.6457 61.168 87.2377 61.168C87.5257 61.168 87.7497 61.264 87.9097 61.456C88.0857 61.632 88.1737 61.872 88.1737 62.176C88.1737 62.768 87.9017 63.288 87.3577 63.736C86.8137 64.184 86.0697 64.52 85.1257 64.744V64.696C85.1257 63.72 85.3257 62.888 85.7257 62.2ZM96.7104 67.072C96.3904 67.488 96.0544 67.696 95.7024 67.696C95.3504 67.696 95.0704 67.576 94.8624 67.336C94.6704 67.096 94.5744 66.728 94.5744 66.232C94.5744 65.336 94.7424 64.488 95.0784 63.688C95.4144 62.888 95.8624 62.248 96.4224 61.768C96.9984 61.272 97.6224 61.016 98.2944 61L97.4064 65.416C97.2624 66.104 97.0304 66.656 96.7104 67.072ZM113.048 51.424C113.352 50.336 113.656 49.792 113.96 49.792C114.104 49.792 114.224 49.96 114.32 50.296C114.432 50.632 114.488 51.104 114.488 51.712C114.488 54.08 113.592 57.216 111.8 61.12C111.896 59.216 112.048 57.392 112.256 55.648C112.48 53.904 112.744 52.496 113.048 51.424ZM107.96 67.336C107.656 67.576 107.352 67.696 107.048 67.696C106.248 67.696 105.848 67.112 105.848 65.944C105.848 64.84 106.136 63.84 106.712 62.944C107.304 62.032 108.04 61.44 108.92 61.168C108.888 62.032 108.872 62.656 108.872 63.04C108.872 64.112 108.952 65.08 109.112 65.944C108.648 66.616 108.264 67.08 107.96 67.336Z" fill="#D3A98A"/>
</svg>
